<svg xmlns="http://www.w3.org/2000/svg" width="174" height="32" viewBox="0 0 174 32">
    <g fill="#383E43" fill-rule="evenodd">
        <path d="M153.53 21.502c.002 6.266 4.011 10.5 10.26 10.498 6.249-.002 10.212-4.238 10.21-10.504l-.006-20.134-4.741.001.006 20.135c.002 3.456-2.238 5.876-5.47 5.877-3.233.001-5.518-2.417-5.519-5.874v-1.858c-.002-3.413 2.282-5.747 5.514-5.748 3.275-.001 5.474 2.158 5.475 5.356l-.003-7.778c-.689-1.036-2.887-2.202-5.474-2.201-6.248.001-10.255 4.151-10.253 10.373v1.857M145.775 19.454c-.001-3.52-2.469-5.895-5.894-5.894-3.426.001-5.892 2.378-5.891 5.898v1.849c.002 3.52 2.47 6.028 5.895 6.027 3.426-.001 5.892-2.51 5.89-6.031v-1.849zm5.024 0l.001 1.847c.002 6.382-4.29 10.697-10.913 10.699-6.624.002-10.92-4.31-10.921-10.692l-.001-1.848c-.002-6.38 4.29-10.607 10.914-10.609 6.623-.002 10.918 4.222 10.92 10.602zM122.575 19.455c-.001-3.52-2.468-5.896-5.895-5.895-3.425 0-5.891 2.378-5.89 5.898v1.848c.002 3.521 2.47 6.029 5.895 6.028 3.426-.001 5.892-2.51 5.891-6.031v-1.848zm5.025-.002v1.849c.003 6.381-4.29 10.696-10.913 10.698-6.624.002-10.92-4.31-10.921-10.692l-.001-1.848c-.002-6.38 4.29-10.607 10.914-10.609 6.623-.002 10.918 4.221 10.92 10.602zM103.418 21.1l-9.862.004.004 10.894-4.845.002-.01-27.91 15.694-.005.001 4.726-10.847.004.002 7.562 9.862-.003.001 4.727M80.88 12.054c-1.968-1.946-4.55-3.017-7.272-3.016-1.99 0-3.99.734-5.089 1.46-2.273 1.5-4.143 3.129-7.509 7.433l.002 3.092c2.856-3.682 5.556-6.584 7.608-8.18 1.35-1.072 3.263-1.736 4.99-1.736 4.459-.002 8.228 3.724 8.23 8.136v1.862a8.02 8.02 0 0 1-2.441 5.773 8.228 8.228 0 0 1-5.784 2.37c-3.663.002-6.89-2.486-7.767-5.884l-1.473 1.766c1.075 3.563 4.957 6.188 9.24 6.187 2.722 0 5.303-1.074 7.27-3.017 1.964-1.948 3.045-4.502 3.044-7.195v-1.862c-.001-2.692-1.084-5.247-3.05-7.19zm-44.763-.935c1.42 0 2.647.3 3.756.92a19.15 19.15 0 0 1 1.437-1.554C40.14 9.6 38.154 9.05 36.116 9.05c-2.902.001-5.537 1.038-7.418 2.92-1.868 1.866-2.898 4.455-2.896 7.291l.003 12.07h2.09l-.005-12.07c-.001-4.793 3.382-8.14 8.227-8.142zm19.866 20.204l-.004-12.072c-.001-3.71-2.942-6.617-6.692-6.616-1.748 0-3.415.702-4.699 1.973-1.282 1.268-1.989 2.92-1.988 4.647v1.863c.001 3.586 3.067 6.618 6.691 6.617.994 0 2.347-.242 3.174-.916l-.001-2.185c-.813.648-1.994 1.032-3.173 1.033-2.578 0-4.6-1.998-4.6-4.55l-.001-1.862c-.001-2.551 2.02-4.55 4.597-4.55 2.58-.001 4.601 1.996 4.602 4.547l.003 12.071h2.09zM0 18.073v.666c.001 3.585 1.378 6.93 3.875 9.417 2.49 2.481 5.832 3.845 9.403 3.844 2.87-.001 5.414-.643 7.561-1.908 1.769-1.045 2.552-2.1 2.62-2.196l-.003-11.13-10.69.003v2.068l8.601-.003.003 8.42-.008.007c-1.008 1-3.397 2.67-8.085 2.672-3.054 0-5.883-1.15-7.966-3.248-2.078-2.085-3.22-4.908-3.22-7.946v-.667c-.001-2.87 1.305-5.732 3.583-7.85a12.518 12.518 0 0 1 8.538-3.351c2.963-.001 5.03.443 6.688 1.436l-.001-2.32c-1.726-.727-3.79-1.052-6.688-1.05C6.506 4.938-.002 10.953 0 18.072zm36.118-3.364c.793 0 1.465.13 2 .387a12.24 12.24 0 0 1 .916-1.813c-.57-.403-1.922-.644-2.917-.644-3.813.002-6.686 2.847-6.685 6.62l.004 12.072h2.089l-.004-12.072c-.001-2.678 1.888-4.55 4.597-4.55zM20.9 12.286V9.842c-1.89-1.004-3.954-1.45-6.689-1.45-2.792.002-5.438 1.016-7.453 2.853-2.018 1.843-3.13 4.267-3.13 6.826v.667c.002 5.335 4.33 9.675 9.648 9.673 4.326-.002 6.102-1.404 6.555-1.846l-.002-6.207-7.063.002v2.067l5.108-.002v3.11l-.018.005c-.657.26-2.022.802-4.581.802a7.499 7.499 0 0 1-5.347-2.202c-1.425-1.424-2.21-3.344-2.21-5.403v-.667c-.001-4.122 3.888-7.608 8.494-7.609 3.185-.001 5.069.51 6.688 1.825zm49.33 3.88c.942-.932 2.176-1.468 3.38-1.469 2.578 0 4.6 1.996 4.6 4.547l.001 1.863c0 2.55-2.02 4.551-4.598 4.552-1.249 0-2.454-.677-3.4-1.905-.838-1.085-1.38-2.552-1.465-3.87l-1.691 2.044c.332 1.565 1.16 3.062 2.327 4.114 1.206 1.085 2.707 1.686 4.23 1.686 3.689-.002 6.688-2.971 6.687-6.622v-1.862c-.002-1.728-.71-3.38-1.992-4.647-1.285-1.27-2.953-1.97-4.7-1.97-1.105 0-2.86.394-4.952 2.256l-.007.009c-.56.553-1.876 1.855-2.675 2.782-1.345 1.453-3.3 3.645-4.964 5.84l.001 3.23c1.847-2.352 2.911-3.668 4.647-5.653 1.555-1.797 3.481-3.98 4.571-4.925zm-31.258 4.953c0 2.694 1.084 5.247 3.05 7.194 1.966 1.941 4.547 3.012 7.27 3.012 1.15 0 2.337-.245 3.173-.653v-2.066c-.978.406-2.16.65-3.174.65-4.459.002-8.23-3.726-8.23-8.138l-.001-1.862c-.002-4.412 3.766-8.14 8.225-8.141 2.217-.001 4.29.838 5.835 2.365a8.058 8.058 0 0 1 2.395 5.77l.004 12.072h2.09l-.005-12.47c-.13-2.633-1.267-5.097-3.201-6.94a10.275 10.275 0 0 0-7.118-2.866c-2.72 0-5.303 1.073-7.269 3.02-1.965 1.944-3.046 4.5-3.045 7.19v1.863zm24.187-8.013c.639-.758 1.3-1.532 2.088-2.182L65.244 0l-2.088.001.004 13.104zm3.626-3.03L66.783 0 68.87 0l.003 8.658c-.568.283-1.361.822-2.088 1.418z"/>
    </g>
</svg>
