<?xml version="1.0" encoding="UTF-8" standalone="no"?>
<svg width="80" height="32" viewBox="0 0 80 32" fill="none" xmlns="http://www.w3.org/2000/svg">
<path d="M60.8398 2.5V11.4313C60.2154 12.0558 59.5464 12.8251 58.8327 13.7394V2.5H60.8398ZM63.7835 2.5V9.4243C63.0252 9.7588 62.3674 10.1825 61.8099 10.6954V2.5H63.7835ZM14.6109 29.294C12.2248 29.294 10.0728 28.7477 8.15493 27.6549C6.23709 26.5399 4.73181 25.0235 3.63908 23.1056C2.54636 21.1655 2 19.0023 2 16.6162C2 14.2969 2.56866 12.1784 3.70599 10.2606C4.84331 8.34272 6.39319 6.83744 8.35563 5.74472C10.3404 4.62969 12.5258 4.07218 14.912 4.07218C17.9448 4.07218 20.4425 4.7635 22.4049 6.14613V8.11972C21.4683 7.4284 20.3644 6.91549 19.0933 6.58099C17.8222 6.22418 16.4284 6.04577 14.912 6.04577C12.9272 6.04577 11.1097 6.51408 9.45951 7.4507C7.80927 8.38732 6.5047 9.6696 5.54577 11.2975C4.58685 12.9032 4.10739 14.6761 4.10739 16.6162C4.10739 18.6232 4.56455 20.4407 5.47887 22.0687C6.39319 23.6966 7.65317 24.9789 9.2588 25.9155C10.8644 26.8521 12.6485 27.3204 14.6109 27.3204C17.3093 27.3204 19.439 26.5622 21 25.0458C22.561 23.5293 23.3415 21.4554 23.3415 18.8239V16.9842H14.8451V15.044H25.2148V18.4894C25.2148 20.6972 24.7799 22.615 23.9102 24.243C23.0628 25.8709 21.8363 27.1197 20.2306 27.9894C18.6473 28.8592 16.7741 29.294 14.6109 29.294ZM14.6109 26.3169C12.8492 26.3169 11.2435 25.8932 9.79401 25.0458C8.34448 24.1984 7.19601 23.0387 6.34859 21.5669C5.52347 20.0728 5.11092 18.4225 5.11092 16.6162C5.11092 14.8545 5.54577 13.2488 6.41549 11.7993C7.28521 10.3275 8.46714 9.16784 9.96127 8.32042C11.4777 7.47301 13.1279 7.0493 14.912 7.0493C16.2946 7.0493 17.6438 7.23885 18.9595 7.61796C20.2752 7.99707 21.4237 8.53228 22.4049 9.22359V11.1303L22.2711 11.2306C21.1338 10.4724 19.9742 9.91491 18.7923 9.5581C17.6103 9.20129 16.3392 9.02289 14.9789 9.02289C13.5293 9.02289 12.2136 9.35739 11.0317 10.0264C9.87207 10.6731 8.95775 11.5763 8.28873 12.7359C7.64202 13.8955 7.31866 15.189 7.31866 16.6162C7.31866 18.1103 7.61972 19.4484 8.22183 20.6303C8.84624 21.7899 9.71596 22.6931 10.831 23.3398C11.946 23.9865 13.206 24.3099 14.6109 24.3099C15.6813 24.3099 16.6403 24.1315 17.4877 23.7746C18.3574 23.3955 19.0376 22.8826 19.5282 22.2359C20.0188 21.5669 20.2641 20.831 20.2641 20.0282H14.8451V18.0211H22.338V19.3257C22.338 20.686 22.0147 21.9014 21.368 22.9718C20.7212 24.02 19.8069 24.8451 18.625 25.4472C17.4654 26.027 16.1273 26.3169 14.6109 26.3169ZM47.1919 29.294C45.3187 29.294 43.6461 28.8815 42.1743 28.0563C40.7025 27.2312 39.554 26.0827 38.7289 24.6109C37.9038 23.1391 37.4912 21.4777 37.4912 19.6268C37.4912 17.6866 37.9149 15.936 38.7623 14.375C39.6097 12.7917 40.7694 11.554 42.2412 10.662C43.7353 9.76995 45.3856 9.32394 47.1919 9.32394C48.9982 9.32394 50.6262 9.74765 52.0757 10.5951C53.5252 11.4202 54.6514 12.5798 55.4542 14.0739C56.2793 15.5458 56.6919 17.196 56.6919 19.0246V28.7254H54.6849V19.0581C54.6849 17.6086 54.3615 16.304 53.7148 15.1444C53.0681 13.9624 52.1761 13.0481 51.0387 12.4014C49.9014 11.7324 48.6191 11.3979 47.1919 11.3979C45.7201 11.3979 44.4043 11.7547 43.2447 12.4683C42.0851 13.1596 41.1708 14.1297 40.5018 15.3785C39.855 16.6273 39.5317 18.0434 39.5317 19.6268C39.5317 21.1209 39.855 22.4478 40.5018 23.6074C41.1485 24.767 42.0516 25.6813 43.2113 26.3504C44.3709 26.9971 45.6978 27.3204 47.1919 27.3204C48.686 27.3204 49.8791 26.9636 50.7711 26.25V28.2236C50.2582 28.6027 49.723 28.8703 49.1655 29.0264C48.6303 29.2048 47.9724 29.294 47.1919 29.294ZM68.5669 29.294C66.493 29.294 64.6866 28.7588 63.1479 27.6884C61.6092 26.5957 60.5499 25.2242 59.9701 23.5739L61.375 21.6673C61.598 22.7377 62.0552 23.7077 62.7465 24.5775C63.4601 25.4249 64.3187 26.0939 65.3222 26.5845C66.348 27.0751 67.4407 27.3204 68.6003 27.3204C70.0053 27.3204 71.2653 26.9748 72.3803 26.2834C73.5176 25.5698 74.4096 24.6109 75.0563 23.4067C75.7031 22.1802 76.0264 20.8198 76.0264 19.3257C76.0264 17.8093 75.6919 16.4489 75.0229 15.2447C74.3762 14.0182 73.473 13.0704 72.3134 12.4014C71.1761 11.7101 69.8938 11.3644 68.4665 11.3644C66.9278 11.3644 65.5786 11.7324 64.419 12.4683C63.2594 13.2042 62.044 14.3527 60.7729 15.9137C60.2154 16.5827 59.1673 17.9542 57.6285 20.0282V17.0845C58.7435 15.4789 59.7136 14.1966 60.5387 13.2377C61.3639 12.2565 62.4566 11.3644 63.8169 10.5616C65.1772 9.7365 66.7271 9.32394 68.4665 9.32394C70.2729 9.32394 71.9008 9.7588 73.3504 10.6285C74.7999 11.4982 75.9372 12.7025 76.7623 14.2412C77.5874 15.7576 78 17.4525 78 19.3257C78 21.1766 77.5874 22.8603 76.7623 24.3768C75.9595 25.8932 74.8333 27.0974 73.3838 27.9894C71.9566 28.8592 70.3509 29.294 68.5669 29.294ZM26.5528 18.3891C26.5528 16.6273 26.9096 15.0775 27.6232 13.7394C28.3369 12.4014 29.3404 11.3644 30.6338 10.6285C31.9495 9.89261 33.466 9.52465 35.1831 9.52465C37.0563 9.52465 38.6397 9.99296 39.9331 10.9296C39.4425 11.3533 39.0076 11.7993 38.6285 12.2676C38.3163 12.0446 37.8369 11.855 37.1901 11.6989C36.5434 11.5428 35.9079 11.4648 35.2835 11.4648C33.9677 11.4648 32.7969 11.7547 31.7711 12.3345C30.7453 12.9143 29.9425 13.7283 29.3627 14.7764C28.8052 15.8245 28.5264 17.0176 28.5264 18.3556V28.7254H26.5528V18.3891ZM68.6003 26.3504C67.4407 26.3504 66.3815 26.0604 65.4225 25.4806C64.4859 24.9008 63.7277 24.1761 63.1479 23.3063C62.5904 22.4143 62.267 21.5446 62.1778 20.6972L63.7166 18.5898H63.7835V18.8908C63.7835 19.8498 63.9842 20.7529 64.3856 21.6004C64.8093 22.4255 65.3891 23.0945 66.125 23.6074C66.8609 24.098 67.686 24.3433 68.6003 24.3433C69.9161 24.3433 70.9865 23.875 71.8116 22.9384C72.6367 21.9795 73.0493 20.7641 73.0493 19.2923C73.0493 17.865 72.6144 16.6831 71.7447 15.7465C70.8973 14.7876 69.7934 14.3081 68.4331 14.3081C67.6303 14.3081 66.9167 14.4642 66.2923 14.7764C65.6678 15.0886 65.1103 15.5012 64.6197 16.0141C64.1291 16.527 63.4824 17.2629 62.6796 18.2218C62.412 18.5786 62.2001 18.8462 62.044 19.0246C60.1931 21.2547 58.7212 23.1837 57.6285 24.8116V21.6004L59.9366 18.5229C60.1819 18.2107 60.561 17.7201 61.0739 17.0511C62.3005 15.3785 63.4935 14.1743 64.6532 13.4384C65.8351 12.6802 67.1062 12.3011 68.4665 12.3011C69.7154 12.3011 70.8415 12.6021 71.8451 13.2042C72.8709 13.8063 73.6626 14.6426 74.2201 15.713C74.7999 16.7835 75.0898 17.9765 75.0898 19.2923C75.0898 20.608 74.7999 21.8122 74.2201 22.9049C73.6626 23.9754 72.8932 24.8228 71.912 25.4472C70.9307 26.0493 69.8269 26.3504 68.6003 26.3504ZM51.7746 19.1919C51.7746 17.787 51.3398 16.6273 50.4701 15.713C49.6004 14.7764 48.4965 14.3081 47.1585 14.3081C45.7981 14.3081 44.6831 14.8099 43.8134 15.8134C42.9437 16.8169 42.5088 18.0992 42.5088 19.6602C42.5088 21.1097 42.9325 22.2582 43.7799 23.1056C44.6273 23.9308 45.7758 24.3433 47.2254 24.3433C47.9167 24.3433 48.5634 24.2541 49.1655 24.0757C49.7899 23.875 50.3028 23.6074 50.7042 23.2729L50.7711 23.3063V25.2799C49.8122 25.9935 48.6191 26.3504 47.1919 26.3504C45.8762 26.3504 44.7054 26.0716 43.6796 25.5141C42.6761 24.9566 41.8844 24.1761 41.3046 23.1725C40.7471 22.1467 40.4683 20.9759 40.4683 19.6602C40.4683 18.233 40.7471 16.973 41.3046 15.8803C41.8844 14.7653 42.6872 13.8955 43.713 13.2711C44.7388 12.6467 45.8985 12.3345 47.1919 12.3345C48.4407 12.3345 49.5558 12.6244 50.537 13.2042C51.5405 13.784 52.321 14.5869 52.8785 15.6127C53.4583 16.6385 53.7482 17.7981 53.7482 19.0915V28.7254H51.7746V19.1919ZM29.4965 18.3556C29.4965 17.196 29.7418 16.1702 30.2324 15.2782C30.723 14.3638 31.4032 13.6614 32.2729 13.1708C33.1426 12.6579 34.135 12.4014 35.25 12.4014C36.1866 12.4014 37.1121 12.6579 38.0264 13.1708C37.8034 13.5276 37.5135 14.0851 37.1567 14.8433C36.5769 14.5534 35.9302 14.4084 35.2165 14.4084C34.1015 14.4084 33.1984 14.7764 32.507 15.5123C31.8157 16.2482 31.4701 17.2072 31.4701 18.3891V28.7254H29.4965V18.3556Z" fill="#00B14F"/>
</svg>
